<svg width="980" height="200" viewBox="0 0 980 200" fill="none" xmlns="http://www.w3.org/2000/svg">
<g clip-path="url(#clip0)">
<path d="M229.6 135.7C224.467 135.7 219.867 134.867 215.8 133.2C211.733 131.533 208.467 129.067 206 125.8C203.6 122.533 202.333 118.6 202.2 114H220.4C220.667 116.6 221.567 118.6 223.1 120C224.633 121.333 226.633 122 229.1 122C231.633 122 233.633 121.433 235.1 120.3C236.567 119.1 237.3 117.467 237.3 115.4C237.3 113.667 236.7 112.233 235.5 111.1C234.367 109.967 232.933 109.033 231.2 108.3C229.533 107.567 227.133 106.733 224 105.8C219.467 104.4 215.767 103 212.9 101.6C210.033 100.2 207.567 98.1333 205.5 95.4C203.433 92.6667 202.4 89.1 202.4 84.7C202.4 78.1667 204.767 73.0667 209.5 69.4C214.233 65.6667 220.4 63.8 228 63.8C235.733 63.8 241.967 65.6667 246.7 69.4C251.433 73.0667 253.967 78.2 254.3 84.8H235.8C235.667 82.5333 234.833 80.7667 233.3 79.5C231.767 78.1667 229.8 77.5 227.4 77.5C225.333 77.5 223.667 78.0667 222.4 79.2C221.133 80.2667 220.5 81.8333 220.5 83.9C220.5 86.1667 221.567 87.9333 223.7 89.2C225.833 90.4667 229.167 91.8333 233.7 93.3C238.233 94.8333 241.9 96.3 244.7 97.7C247.567 99.1 250.033 101.133 252.1 103.8C254.167 106.467 255.2 109.9 255.2 114.1C255.2 118.1 254.167 121.733 252.1 125C250.1 128.267 247.167 130.867 243.3 132.8C239.433 134.733 234.867 135.7 229.6 135.7ZM331.623 64.8L306.723 135H285.323L260.423 64.8H278.623L296.023 117.8L313.523 64.8H331.623Z" fill="#59C9E7"/>
<path d="M388.747 65.5C396.147 65.5 402.614 66.9333 408.147 69.8C413.747 72.6 418.047 76.6667 421.047 82C424.114 87.2667 425.647 93.4333 425.647 100.5C425.647 107.567 424.114 113.7 421.047 118.9C418.047 124.1 413.747 128.1 408.147 130.9C402.614 133.633 396.147 135 388.747 135H366.047V65.5H388.747ZM388.747 125.7C396.88 125.7 403.114 123.5 407.447 119.1C411.78 114.7 413.947 108.5 413.947 100.5C413.947 92.4333 411.78 86.1333 407.447 81.6C403.114 77.0667 396.88 74.8 388.747 74.8H377.447V125.7H388.747ZM478.845 120.8H449.745L444.745 135H432.845L457.745 65.4H470.945L495.845 135H483.845L478.845 120.8ZM475.645 111.5L464.345 79.2L452.945 111.5H475.645ZM529.572 135.7C524.905 135.7 520.705 134.9 516.972 133.3C513.239 131.633 510.305 129.3 508.172 126.3C506.039 123.3 504.972 119.8 504.972 115.8H517.172C517.439 118.8 518.605 121.267 520.672 123.2C522.805 125.133 525.772 126.1 529.572 126.1C533.505 126.1 536.572 125.167 538.772 123.3C540.972 121.367 542.072 118.9 542.072 115.9C542.072 113.567 541.372 111.667 539.972 110.2C538.639 108.733 536.939 107.6 534.872 106.8C532.872 106 530.072 105.133 526.472 104.2C521.939 103 518.239 101.8 515.372 100.6C512.572 99.3333 510.172 97.4 508.172 94.8C506.172 92.2 505.172 88.7333 505.172 84.4C505.172 80.4 506.172 76.9 508.172 73.9C510.172 70.9 512.972 68.6 516.572 67C520.172 65.4 524.339 64.6 529.072 64.6C535.805 64.6 541.305 66.3 545.572 69.7C549.905 73.0333 552.305 77.6333 552.772 83.5H540.172C539.972 80.9667 538.772 78.8 536.572 77C534.372 75.2 531.472 74.3 527.872 74.3C524.605 74.3 521.939 75.1333 519.872 76.8C517.805 78.4667 516.772 80.8667 516.772 84C516.772 86.1333 517.405 87.9 518.672 89.3C520.005 90.6333 521.672 91.7 523.672 92.5C525.672 93.3 528.405 94.1667 531.872 95.1C536.472 96.3667 540.205 97.6333 543.072 98.9C546.005 100.167 548.472 102.133 550.472 104.8C552.539 107.4 553.572 110.9 553.572 115.3C553.572 118.833 552.605 122.167 550.672 125.3C548.805 128.433 546.039 130.967 542.372 132.9C538.772 134.767 534.505 135.7 529.572 135.7ZM622.523 65.5V135H611.123V104.6H578.423V135H567.023V65.5H578.423V95.3H611.123V65.5H622.523ZM674.731 99.3C678.465 99.9667 681.631 101.933 684.231 105.2C686.831 108.467 688.131 112.167 688.131 116.3C688.131 119.833 687.198 123.033 685.331 125.9C683.531 128.7 680.898 130.933 677.431 132.6C673.965 134.2 669.931 135 665.331 135H637.531V65.5H664.031C668.765 65.5 672.831 66.3 676.231 67.9C679.631 69.5 682.198 71.6667 683.931 74.4C685.665 77.0667 686.531 80.0667 686.531 83.4C686.531 87.4 685.465 90.7333 683.331 93.4C681.198 96.0667 678.331 98.0333 674.731 99.3ZM648.931 94.7H663.031C666.765 94.7 669.665 93.8667 671.731 92.2C673.865 90.4667 674.931 88 674.931 84.8C674.931 81.6667 673.865 79.2333 671.731 77.5C669.665 75.7 666.765 74.8 663.031 74.8H648.931V94.7ZM664.331 125.7C668.198 125.7 671.231 124.767 673.431 122.9C675.631 121.033 676.731 118.433 676.731 115.1C676.731 111.7 675.565 109 673.231 107C670.898 105 667.798 104 663.931 104H648.931V125.7H664.331ZM732.22 135.7C725.753 135.7 719.786 134.2 714.32 131.2C708.92 128.133 704.62 123.9 701.42 118.5C698.286 113.033 696.72 106.9 696.72 100.1C696.72 93.3 698.286 87.2 701.42 81.8C704.62 76.4 708.92 72.2 714.32 69.2C719.786 66.1333 725.753 64.6 732.22 64.6C738.753 64.6 744.72 66.1333 750.12 69.2C755.586 72.2 759.886 76.4 763.02 81.8C766.153 87.2 767.72 93.3 767.72 100.1C767.72 106.9 766.153 113.033 763.02 118.5C759.886 123.9 755.586 128.133 750.12 131.2C744.72 134.2 738.753 135.7 732.22 135.7ZM732.22 125.8C736.82 125.8 740.92 124.767 744.52 122.7C748.12 120.567 750.92 117.567 752.92 113.7C754.986 109.767 756.02 105.233 756.02 100.1C756.02 94.9667 754.986 90.4667 752.92 86.6C750.92 82.7333 748.12 79.7667 744.52 77.7C740.92 75.6333 736.82 74.6 732.22 74.6C727.62 74.6 723.52 75.6333 719.92 77.7C716.32 79.7667 713.486 82.7333 711.42 86.6C709.42 90.4667 708.42 94.9667 708.42 100.1C708.42 105.233 709.42 109.767 711.42 113.7C713.486 117.567 716.32 120.567 719.92 122.7C723.52 124.767 727.62 125.8 732.22 125.8ZM820.838 120.8H791.738L786.738 135H774.838L799.738 65.4H812.938L837.838 135H825.838L820.838 120.8ZM817.638 111.5L806.338 79.2L794.938 111.5H817.638ZM884.764 135L868.764 107.2H860.064V135H848.664V65.5H872.664C877.997 65.5 882.497 66.4333 886.164 68.3C889.897 70.1667 892.664 72.6667 894.464 75.8C896.331 78.9333 897.264 82.4333 897.264 86.3C897.264 90.8333 895.931 94.9667 893.264 98.7C890.664 102.367 886.631 104.867 881.164 106.2L898.364 135H884.764ZM860.064 98.1H872.664C876.931 98.1 880.131 97.0333 882.264 94.9C884.464 92.7667 885.564 89.9 885.564 86.3C885.564 82.7 884.497 79.9 882.364 77.9C880.231 75.8333 876.997 74.8 872.664 74.8H860.064V98.1ZM934.548 65.5C941.948 65.5 948.414 66.9333 953.948 69.8C959.548 72.6 963.848 76.6667 966.848 82C969.914 87.2667 971.448 93.4333 971.448 100.5C971.448 107.567 969.914 113.7 966.848 118.9C963.848 124.1 959.548 128.1 953.948 130.9C948.414 133.633 941.948 135 934.548 135H911.848V65.5H934.548ZM934.548 125.7C942.681 125.7 948.914 123.5 953.248 119.1C957.581 114.7 959.748 108.5 959.748 100.5C959.748 92.4333 957.581 86.1333 953.248 81.6C948.914 77.0667 942.681 74.8 934.548 74.8H923.248V125.7H934.548Z" fill="black"/>
<path d="M0 150V50L86.6 0L173.2 50V150L86.6 200L0 150Z" fill="#61DAFB"/>
<path d="M86.6 133.3L57.7 116.7V83.2998L86.6 66.6998L115.5 83.2998L144.3 66.6998L86.6 33.2998L28.9 66.6998V133.3L86.6 166.7L144.3 133.3L115.5 116.7L86.6 133.3Z" fill="white"/>
<path opacity="0.04" d="M0 50L86.6 100V0L0 50Z" fill="black" stroke="white" stroke-miterlimit="10"/>
<path opacity="0.04" d="M0 150L86.6 200V100L0 150Z" fill="black" stroke="white" stroke-miterlimit="10"/>
<path opacity="0.08" d="M86.6 100L173.2 150V50L86.6 100Z" fill="black" stroke="white" stroke-miterlimit="10"/>
<path opacity="0.08" d="M173.2 150L86.6 100V200L173.2 150Z" fill="black" stroke="white" stroke-miterlimit="10"/>
<path opacity="0.08" d="M173.2 50L86.6 0V100L173.2 50Z" fill="black" stroke="white" stroke-miterlimit="10"/>
</g>
<defs>
<clipPath id="clip0">
<rect width="980" height="200" fill="white"/>
</clipPath>
</defs>
</svg>
